<mxfile host="app.diagrams.net" modified="2022-11-01T12:10:04.471Z" agent="5.0 (Windows NT 10.0; Win64; x64) AppleWebKit/537.36 (KHTML, like Gecko) Chrome/107.0.0.0 Safari/537.36 Edg/107.0.1418.26" etag="5wEVyDZ_rB6vECxb6iJP" version="20.5.1" type="github" pages="8">
  <diagram id="C_pafondrnuH2jQkp4BJ" name="EJE-1">
    <mxGraphModel dx="868" dy="482" grid="1" gridSize="9" guides="1" tooltips="1" connect="1" arrows="1" fold="1" page="1" pageScale="1" pageWidth="827" pageHeight="1169" math="0" shadow="0">
      <root>
        <mxCell id="0" />
        <mxCell id="1" parent="0" />
        <mxCell id="67MqIu8RiWTuoSil-g8G-1" value="profesor" style="whiteSpace=wrap;html=1;align=center;fontSize=10;glass=0;rounded=0;shadow=0;sketch=0;fillColor=#d5e8d4;strokeColor=#82b366;fontStyle=1" parent="1" vertex="1">
          <mxGeometry x="72" y="252" width="100" height="40" as="geometry" />
        </mxCell>
        <mxCell id="Y26ceKfvN92v9ursP5tr-3" style="edgeStyle=orthogonalEdgeStyle;rounded=0;orthogonalLoop=1;jettySize=auto;html=1;exitX=0;exitY=0.5;exitDx=0;exitDy=0;" parent="1" source="67MqIu8RiWTuoSil-g8G-2" target="67MqIu8RiWTuoSil-g8G-3" edge="1">
          <mxGeometry relative="1" as="geometry" />
        </mxCell>
        <mxCell id="Y26ceKfvN92v9ursP5tr-4" value="1/n" style="edgeLabel;html=1;align=center;verticalAlign=middle;resizable=0;points=[];fontSize=20;" parent="Y26ceKfvN92v9ursP5tr-3" vertex="1" connectable="0">
          <mxGeometry x="0.2568" relative="1" as="geometry">
            <mxPoint x="34" y="-20" as="offset" />
          </mxGeometry>
        </mxCell>
        <mxCell id="67MqIu8RiWTuoSil-g8G-2" value="alumno" style="whiteSpace=wrap;html=1;align=center;fontSize=10;fillColor=#d5e8d4;strokeColor=#82b366;fontStyle=1" parent="1" vertex="1">
          <mxGeometry x="657" y="252" width="100" height="40" as="geometry" />
        </mxCell>
        <mxCell id="67MqIu8RiWTuoSil-g8G-3" value="dar" style="shape=rhombus;perimeter=rhombusPerimeter;whiteSpace=wrap;html=1;align=center;fontSize=10;fillColor=#fff2cc;strokeColor=#d6b656;fontStyle=1" parent="1" vertex="1">
          <mxGeometry x="354" y="242" width="120" height="60" as="geometry" />
        </mxCell>
        <mxCell id="67MqIu8RiWTuoSil-g8G-4" value="En una academia los profesores dan clase a los alumnos matriculados de &lt;br/&gt;modo que todo profesor da clase al menos a un alumno y todo alumno &lt;br/&gt;recibe clase de un único profesor." style="text;html=1;align=center;verticalAlign=middle;resizable=0;points=[];autosize=1;strokeColor=none;fillColor=none;fontSize=20;" parent="1" vertex="1">
          <mxGeometry x="77" y="33" width="675" height="81" as="geometry" />
        </mxCell>
        <mxCell id="67MqIu8RiWTuoSil-g8G-5" value="1/n" style="text;html=1;align=center;verticalAlign=middle;resizable=0;points=[];autosize=1;strokeColor=none;fillColor=none;fontSize=20;" parent="1" vertex="1">
          <mxGeometry x="387" y="190" width="54" height="36" as="geometry" />
        </mxCell>
        <mxCell id="Y26ceKfvN92v9ursP5tr-8" value="" style="endArrow=none;html=1;rounded=0;fontSize=20;entryX=0;entryY=0.5;entryDx=0;entryDy=0;" parent="1" target="67MqIu8RiWTuoSil-g8G-3" edge="1">
          <mxGeometry relative="1" as="geometry">
            <mxPoint x="171" y="272" as="sourcePoint" />
            <mxPoint x="342" y="270" as="targetPoint" />
          </mxGeometry>
        </mxCell>
        <mxCell id="Y26ceKfvN92v9ursP5tr-9" value="1/1" style="edgeLabel;html=1;align=center;verticalAlign=middle;resizable=0;points=[];fontSize=20;" parent="Y26ceKfvN92v9ursP5tr-8" vertex="1" connectable="0">
          <mxGeometry x="-0.3441" y="-1" relative="1" as="geometry">
            <mxPoint x="39" y="-20" as="offset" />
          </mxGeometry>
        </mxCell>
      </root>
    </mxGraphModel>
  </diagram>
  <diagram name="EJE-2" id="QG7SXy7-9-3xbRphjzR8">
    <mxGraphModel dx="868" dy="482" grid="1" gridSize="9" guides="1" tooltips="1" connect="1" arrows="1" fold="1" page="1" pageScale="1" pageWidth="827" pageHeight="1169" math="0" shadow="0">
      <root>
        <mxCell id="bJsUSY9qkbJMN_Lycvin-0" />
        <mxCell id="bJsUSY9qkbJMN_Lycvin-1" parent="bJsUSY9qkbJMN_Lycvin-0" />
        <mxCell id="bJsUSY9qkbJMN_Lycvin-2" style="edgeStyle=orthogonalEdgeStyle;rounded=0;orthogonalLoop=1;jettySize=auto;html=1;exitX=1;exitY=0.5;exitDx=0;exitDy=0;entryX=0;entryY=0.5;entryDx=0;entryDy=0;fontSize=20;" parent="bJsUSY9qkbJMN_Lycvin-1" source="bJsUSY9qkbJMN_Lycvin-4" target="bJsUSY9qkbJMN_Lycvin-8" edge="1">
          <mxGeometry relative="1" as="geometry" />
        </mxCell>
        <mxCell id="bJsUSY9qkbJMN_Lycvin-3" value="1/1" style="edgeLabel;html=1;align=center;verticalAlign=middle;resizable=0;points=[];fontSize=20;" parent="bJsUSY9qkbJMN_Lycvin-2" vertex="1" connectable="0">
          <mxGeometry x="-0.1429" y="-1" relative="1" as="geometry">
            <mxPoint y="-21" as="offset" />
          </mxGeometry>
        </mxCell>
        <mxCell id="bJsUSY9qkbJMN_Lycvin-4" value="profesor" style="whiteSpace=wrap;html=1;align=center;fontSize=10;glass=0;rounded=0;shadow=0;sketch=0;fillColor=#d5e8d4;strokeColor=#82b366;fontStyle=1" parent="bJsUSY9qkbJMN_Lycvin-1" vertex="1">
          <mxGeometry x="72" y="252" width="100" height="40" as="geometry" />
        </mxCell>
        <mxCell id="IlB6msFbpt7T41z2FdNk-0" style="edgeStyle=orthogonalEdgeStyle;rounded=0;orthogonalLoop=1;jettySize=auto;html=1;exitX=0;exitY=0.5;exitDx=0;exitDy=0;fontSize=10;" parent="bJsUSY9qkbJMN_Lycvin-1" source="bJsUSY9qkbJMN_Lycvin-5" edge="1">
          <mxGeometry relative="1" as="geometry">
            <mxPoint x="657" y="272" as="targetPoint" />
          </mxGeometry>
        </mxCell>
        <mxCell id="bJsUSY9qkbJMN_Lycvin-5" value="alumno" style="whiteSpace=wrap;html=1;align=center;fontSize=10;fillColor=#d5e8d4;strokeColor=#82b366;fontStyle=1" parent="bJsUSY9qkbJMN_Lycvin-1" vertex="1">
          <mxGeometry x="657" y="252" width="100" height="40" as="geometry" />
        </mxCell>
        <mxCell id="bJsUSY9qkbJMN_Lycvin-6" style="edgeStyle=orthogonalEdgeStyle;rounded=0;orthogonalLoop=1;jettySize=auto;html=1;exitX=1;exitY=0.5;exitDx=0;exitDy=0;entryX=0;entryY=0.5;entryDx=0;entryDy=0;fontSize=20;" parent="bJsUSY9qkbJMN_Lycvin-1" source="bJsUSY9qkbJMN_Lycvin-8" target="bJsUSY9qkbJMN_Lycvin-5" edge="1">
          <mxGeometry relative="1" as="geometry" />
        </mxCell>
        <mxCell id="bJsUSY9qkbJMN_Lycvin-7" value="0/n" style="edgeLabel;html=1;align=center;verticalAlign=middle;resizable=0;points=[];fontSize=20;" parent="bJsUSY9qkbJMN_Lycvin-6" vertex="1" connectable="0">
          <mxGeometry x="-0.2678" y="-1" relative="1" as="geometry">
            <mxPoint x="17" y="-21" as="offset" />
          </mxGeometry>
        </mxCell>
        <mxCell id="bJsUSY9qkbJMN_Lycvin-8" value="ser tutor" style="shape=rhombus;perimeter=rhombusPerimeter;whiteSpace=wrap;html=1;align=center;fontSize=10;fillColor=#fff2cc;strokeColor=#d6b656;fontStyle=1" parent="bJsUSY9qkbJMN_Lycvin-1" vertex="1">
          <mxGeometry x="354" y="242" width="120" height="60" as="geometry" />
        </mxCell>
        <mxCell id="bJsUSY9qkbJMN_Lycvin-9" value="Los profesores de un centro pueden ser o no tutores de un alumno, en &lt;br/&gt;cualquier caso los alumnos solo podrán tener un único tutor." style="text;html=1;align=center;verticalAlign=middle;resizable=0;points=[];autosize=1;strokeColor=none;fillColor=none;fontSize=20;" parent="bJsUSY9qkbJMN_Lycvin-1" vertex="1">
          <mxGeometry x="91" y="42" width="648" height="63" as="geometry" />
        </mxCell>
        <mxCell id="bJsUSY9qkbJMN_Lycvin-10" value="1/n" style="text;html=1;align=center;verticalAlign=middle;resizable=0;points=[];autosize=1;strokeColor=none;fillColor=none;fontSize=20;" parent="bJsUSY9qkbJMN_Lycvin-1" vertex="1">
          <mxGeometry x="387" y="190" width="54" height="36" as="geometry" />
        </mxCell>
      </root>
    </mxGraphModel>
  </diagram>
  <diagram name="EJE-3" id="ckKhmE-Ulk386ZOk6HXc">
    <mxGraphModel dx="868" dy="482" grid="1" gridSize="9" guides="1" tooltips="1" connect="1" arrows="1" fold="1" page="1" pageScale="1" pageWidth="827" pageHeight="1169" math="0" shadow="0">
      <root>
        <mxCell id="mCiLh-W48cnySSuwbcz7-0" />
        <mxCell id="mCiLh-W48cnySSuwbcz7-1" parent="mCiLh-W48cnySSuwbcz7-0" />
        <mxCell id="mCiLh-W48cnySSuwbcz7-4" value="producto" style="whiteSpace=wrap;html=1;align=center;fontSize=10;glass=0;rounded=0;shadow=0;sketch=0;fillColor=#d5e8d4;strokeColor=#82b366;fontStyle=1" parent="mCiLh-W48cnySSuwbcz7-1" vertex="1">
          <mxGeometry x="72" y="252" width="100" height="40" as="geometry" />
        </mxCell>
        <mxCell id="mCiLh-W48cnySSuwbcz7-5" style="edgeStyle=orthogonalEdgeStyle;rounded=0;orthogonalLoop=1;jettySize=auto;html=1;exitX=0;exitY=0.5;exitDx=0;exitDy=0;fontSize=10;" parent="mCiLh-W48cnySSuwbcz7-1" source="mCiLh-W48cnySSuwbcz7-6" edge="1">
          <mxGeometry relative="1" as="geometry">
            <mxPoint x="657" y="272" as="targetPoint" />
          </mxGeometry>
        </mxCell>
        <mxCell id="_xcqq2t0UgPtg0zGJdG0-1" style="edgeStyle=orthogonalEdgeStyle;rounded=0;orthogonalLoop=1;jettySize=auto;html=1;exitX=0;exitY=0.5;exitDx=0;exitDy=0;fontSize=20;" parent="mCiLh-W48cnySSuwbcz7-1" source="mCiLh-W48cnySSuwbcz7-6" target="mCiLh-W48cnySSuwbcz7-9" edge="1">
          <mxGeometry relative="1" as="geometry" />
        </mxCell>
        <mxCell id="_xcqq2t0UgPtg0zGJdG0-2" value="0/n" style="edgeLabel;html=1;align=center;verticalAlign=middle;resizable=0;points=[];fontSize=20;" parent="_xcqq2t0UgPtg0zGJdG0-1" vertex="1" connectable="0">
          <mxGeometry x="-0.2022" y="2" relative="1" as="geometry">
            <mxPoint x="-17" y="-22" as="offset" />
          </mxGeometry>
        </mxCell>
        <mxCell id="mCiLh-W48cnySSuwbcz7-6" value="clientes" style="whiteSpace=wrap;html=1;align=center;fontSize=10;fillColor=#d5e8d4;strokeColor=#82b366;fontStyle=1" parent="mCiLh-W48cnySSuwbcz7-1" vertex="1">
          <mxGeometry x="657" y="252" width="100" height="40" as="geometry" />
        </mxCell>
        <mxCell id="_xcqq2t0UgPtg0zGJdG0-3" style="edgeStyle=orthogonalEdgeStyle;rounded=0;orthogonalLoop=1;jettySize=auto;html=1;exitX=0;exitY=0.5;exitDx=0;exitDy=0;entryX=1;entryY=0.5;entryDx=0;entryDy=0;fontSize=20;" parent="mCiLh-W48cnySSuwbcz7-1" source="mCiLh-W48cnySSuwbcz7-9" target="mCiLh-W48cnySSuwbcz7-4" edge="1">
          <mxGeometry relative="1" as="geometry" />
        </mxCell>
        <mxCell id="_xcqq2t0UgPtg0zGJdG0-4" value="0/1" style="edgeLabel;html=1;align=center;verticalAlign=middle;resizable=0;points=[];fontSize=20;" parent="_xcqq2t0UgPtg0zGJdG0-3" vertex="1" connectable="0">
          <mxGeometry x="-0.2088" relative="1" as="geometry">
            <mxPoint x="-12" y="-20" as="offset" />
          </mxGeometry>
        </mxCell>
        <mxCell id="mCiLh-W48cnySSuwbcz7-9" value="comprar" style="shape=rhombus;perimeter=rhombusPerimeter;whiteSpace=wrap;html=1;align=center;fontSize=10;fillColor=#fff2cc;strokeColor=#d6b656;fontStyle=1" parent="mCiLh-W48cnySSuwbcz7-1" vertex="1">
          <mxGeometry x="354" y="242" width="120" height="60" as="geometry" />
        </mxCell>
        <mxCell id="mCiLh-W48cnySSuwbcz7-10" value="&lt;div&gt;En un comercio, un cliente compra varios productos, &lt;br&gt;&lt;/div&gt;&lt;div&gt;y un producto puede ser comprado por varios clientes.&lt;/div&gt;" style="text;html=1;align=center;verticalAlign=middle;resizable=0;points=[];autosize=1;strokeColor=none;fillColor=none;fontSize=20;" parent="mCiLh-W48cnySSuwbcz7-1" vertex="1">
          <mxGeometry x="163" y="43" width="504" height="63" as="geometry" />
        </mxCell>
        <mxCell id="mCiLh-W48cnySSuwbcz7-11" value="1/n" style="text;html=1;align=center;verticalAlign=middle;resizable=0;points=[];autosize=1;strokeColor=none;fillColor=none;fontSize=20;" parent="mCiLh-W48cnySSuwbcz7-1" vertex="1">
          <mxGeometry x="387" y="190" width="54" height="36" as="geometry" />
        </mxCell>
      </root>
    </mxGraphModel>
  </diagram>
  <diagram name="EJE-4" id="-D0njKsWUir9gbyyUQ1v">
    <mxGraphModel dx="868" dy="482" grid="1" gridSize="9" guides="1" tooltips="1" connect="1" arrows="1" fold="1" page="1" pageScale="1" pageWidth="827" pageHeight="1169" math="0" shadow="0">
      <root>
        <mxCell id="qJhj5amrhtMFLxrTrymd-0" />
        <mxCell id="qJhj5amrhtMFLxrTrymd-1" parent="qJhj5amrhtMFLxrTrymd-0" />
        <mxCell id="qJhj5amrhtMFLxrTrymd-2" style="edgeStyle=orthogonalEdgeStyle;rounded=0;orthogonalLoop=1;jettySize=auto;html=1;exitX=1;exitY=0.5;exitDx=0;exitDy=0;entryX=0;entryY=0.5;entryDx=0;entryDy=0;fontSize=20;" parent="qJhj5amrhtMFLxrTrymd-1" source="qJhj5amrhtMFLxrTrymd-4" target="qJhj5amrhtMFLxrTrymd-9" edge="1">
          <mxGeometry relative="1" as="geometry" />
        </mxCell>
        <mxCell id="qJhj5amrhtMFLxrTrymd-3" value="1/1" style="edgeLabel;html=1;align=center;verticalAlign=middle;resizable=0;points=[];fontSize=20;" parent="qJhj5amrhtMFLxrTrymd-2" vertex="1" connectable="0">
          <mxGeometry x="-0.1429" y="-1" relative="1" as="geometry">
            <mxPoint y="-21" as="offset" />
          </mxGeometry>
        </mxCell>
        <mxCell id="qJhj5amrhtMFLxrTrymd-4" value="persona" style="whiteSpace=wrap;html=1;align=center;fontSize=10;glass=0;rounded=0;shadow=0;sketch=0;fillColor=#d5e8d4;strokeColor=#82b366;fontStyle=1" parent="qJhj5amrhtMFLxrTrymd-1" vertex="1">
          <mxGeometry x="213" y="233" width="100" height="40" as="geometry" />
        </mxCell>
        <mxCell id="qJhj5amrhtMFLxrTrymd-5" style="edgeStyle=orthogonalEdgeStyle;rounded=0;orthogonalLoop=1;jettySize=auto;html=1;exitX=0;exitY=0.5;exitDx=0;exitDy=0;fontSize=10;" parent="qJhj5amrhtMFLxrTrymd-1" edge="1">
          <mxGeometry relative="1" as="geometry">
            <mxPoint x="657" y="272" as="targetPoint" />
            <mxPoint x="657" y="272" as="sourcePoint" />
          </mxGeometry>
        </mxCell>
        <mxCell id="bA5fM5YiuMTR1TJxgv4M-0" style="edgeStyle=orthogonalEdgeStyle;rounded=0;orthogonalLoop=1;jettySize=auto;html=1;exitX=0.5;exitY=1;exitDx=0;exitDy=0;entryX=0.5;entryY=1;entryDx=0;entryDy=0;fontSize=10;" parent="qJhj5amrhtMFLxrTrymd-1" source="qJhj5amrhtMFLxrTrymd-9" target="qJhj5amrhtMFLxrTrymd-4" edge="1">
          <mxGeometry relative="1" as="geometry" />
        </mxCell>
        <mxCell id="bA5fM5YiuMTR1TJxgv4M-1" value="0/n" style="edgeLabel;html=1;align=center;verticalAlign=middle;resizable=0;points=[];fontSize=20;" parent="bA5fM5YiuMTR1TJxgv4M-0" vertex="1" connectable="0">
          <mxGeometry x="0.2105" y="1" relative="1" as="geometry">
            <mxPoint x="25" y="19" as="offset" />
          </mxGeometry>
        </mxCell>
        <mxCell id="qJhj5amrhtMFLxrTrymd-9" value="es_padre" style="shape=rhombus;perimeter=rhombusPerimeter;whiteSpace=wrap;html=1;align=center;fontSize=10;fillColor=#fff2cc;strokeColor=#d6b656;fontStyle=1" parent="qJhj5amrhtMFLxrTrymd-1" vertex="1">
          <mxGeometry x="495" y="223" width="120" height="60" as="geometry" />
        </mxCell>
        <mxCell id="qJhj5amrhtMFLxrTrymd-10" value="Representa la relación entre Personas y sus padres." style="text;html=1;align=center;verticalAlign=middle;resizable=0;points=[];autosize=1;strokeColor=none;fillColor=none;fontSize=20;" parent="qJhj5amrhtMFLxrTrymd-1" vertex="1">
          <mxGeometry x="172" y="57" width="486" height="36" as="geometry" />
        </mxCell>
        <mxCell id="qJhj5amrhtMFLxrTrymd-11" value="1/n" style="text;html=1;align=center;verticalAlign=middle;resizable=0;points=[];autosize=1;strokeColor=none;fillColor=none;fontSize=20;" parent="qJhj5amrhtMFLxrTrymd-1" vertex="1">
          <mxGeometry x="528" y="171" width="54" height="36" as="geometry" />
        </mxCell>
      </root>
    </mxGraphModel>
  </diagram>
  <diagram name="EJE-5" id="zymDI2UMHz7tpgXJpWZK">
    <mxGraphModel dx="868" dy="482" grid="1" gridSize="9" guides="1" tooltips="1" connect="1" arrows="1" fold="1" page="1" pageScale="1" pageWidth="827" pageHeight="1169" math="0" shadow="0">
      <root>
        <mxCell id="3Q2idPKjM8KNni23texu-0" />
        <mxCell id="3Q2idPKjM8KNni23texu-1" parent="3Q2idPKjM8KNni23texu-0" />
        <mxCell id="3Q2idPKjM8KNni23texu-10" value="En una carrera de relevos, representar la relación dar el relevo entre atletas&lt;br&gt;(para calcular las cardinalidades máxima y mínima deberás tener en cuenta &lt;br&gt;si se trata de el primero,el último o el 2º o 3º)" style="text;html=1;align=center;verticalAlign=middle;resizable=0;points=[];autosize=1;strokeColor=none;fillColor=none;fontSize=20;" parent="3Q2idPKjM8KNni23texu-1" vertex="1">
          <mxGeometry x="69" y="34" width="693" height="81" as="geometry" />
        </mxCell>
        <mxCell id="w8VDgoV0qq005vwrewg4-0" style="edgeStyle=orthogonalEdgeStyle;rounded=0;orthogonalLoop=1;jettySize=auto;html=1;exitX=1;exitY=0.5;exitDx=0;exitDy=0;entryX=0;entryY=0.5;entryDx=0;entryDy=0;fontSize=20;" parent="3Q2idPKjM8KNni23texu-1" source="w8VDgoV0qq005vwrewg4-2" target="w8VDgoV0qq005vwrewg4-5" edge="1">
          <mxGeometry relative="1" as="geometry" />
        </mxCell>
        <mxCell id="w8VDgoV0qq005vwrewg4-1" value="1/1" style="edgeLabel;html=1;align=center;verticalAlign=middle;resizable=0;points=[];fontSize=20;" parent="w8VDgoV0qq005vwrewg4-0" vertex="1" connectable="0">
          <mxGeometry x="-0.1429" y="-1" relative="1" as="geometry">
            <mxPoint y="-21" as="offset" />
          </mxGeometry>
        </mxCell>
        <mxCell id="w8VDgoV0qq005vwrewg4-2" value="atletas" style="whiteSpace=wrap;html=1;align=center;fontSize=10;glass=0;rounded=0;shadow=0;sketch=0;fillColor=#d5e8d4;strokeColor=#82b366;fontStyle=1" parent="3Q2idPKjM8KNni23texu-1" vertex="1">
          <mxGeometry x="213" y="251" width="100" height="40" as="geometry" />
        </mxCell>
        <mxCell id="w8VDgoV0qq005vwrewg4-3" style="edgeStyle=orthogonalEdgeStyle;rounded=0;orthogonalLoop=1;jettySize=auto;html=1;exitX=0.5;exitY=1;exitDx=0;exitDy=0;entryX=0.5;entryY=1;entryDx=0;entryDy=0;fontSize=10;" parent="3Q2idPKjM8KNni23texu-1" source="w8VDgoV0qq005vwrewg4-5" target="w8VDgoV0qq005vwrewg4-2" edge="1">
          <mxGeometry relative="1" as="geometry" />
        </mxCell>
        <mxCell id="w8VDgoV0qq005vwrewg4-4" value="1/1" style="edgeLabel;html=1;align=center;verticalAlign=middle;resizable=0;points=[];fontSize=20;" parent="w8VDgoV0qq005vwrewg4-3" vertex="1" connectable="0">
          <mxGeometry x="0.2105" y="1" relative="1" as="geometry">
            <mxPoint x="25" y="19" as="offset" />
          </mxGeometry>
        </mxCell>
        <mxCell id="w8VDgoV0qq005vwrewg4-5" value="dar relevo" style="shape=rhombus;perimeter=rhombusPerimeter;whiteSpace=wrap;html=1;align=center;fontSize=10;fillColor=#fff2cc;strokeColor=#d6b656;fontStyle=1" parent="3Q2idPKjM8KNni23texu-1" vertex="1">
          <mxGeometry x="495" y="241" width="120" height="60" as="geometry" />
        </mxCell>
        <mxCell id="w8VDgoV0qq005vwrewg4-6" value="1/1" style="text;html=1;align=center;verticalAlign=middle;resizable=0;points=[];autosize=1;strokeColor=none;fillColor=none;fontSize=20;" parent="3Q2idPKjM8KNni23texu-1" vertex="1">
          <mxGeometry x="528" y="189" width="54" height="36" as="geometry" />
        </mxCell>
      </root>
    </mxGraphModel>
  </diagram>
  <diagram name="EJE-6" id="ZMl4KKqb7_XUoEZmC8r-">
    <mxGraphModel dx="1695" dy="482" grid="1" gridSize="9" guides="1" tooltips="1" connect="1" arrows="1" fold="1" page="1" pageScale="1" pageWidth="827" pageHeight="1169" math="0" shadow="0">
      <root>
        <mxCell id="ceRQ4z9V4SoCpZ6O9gZ1-0" />
        <mxCell id="ceRQ4z9V4SoCpZ6O9gZ1-1" parent="ceRQ4z9V4SoCpZ6O9gZ1-0" />
        <mxCell id="ceRQ4z9V4SoCpZ6O9gZ1-2" style="edgeStyle=orthogonalEdgeStyle;rounded=0;orthogonalLoop=1;jettySize=auto;html=1;exitX=1;exitY=0.5;exitDx=0;exitDy=0;entryX=0;entryY=0.5;entryDx=0;entryDy=0;fontSize=20;" parent="ceRQ4z9V4SoCpZ6O9gZ1-1" source="ceRQ4z9V4SoCpZ6O9gZ1-4" target="ceRQ4z9V4SoCpZ6O9gZ1-9" edge="1">
          <mxGeometry relative="1" as="geometry" />
        </mxCell>
        <mxCell id="ceRQ4z9V4SoCpZ6O9gZ1-3" value="1/N" style="edgeLabel;html=1;align=center;verticalAlign=middle;resizable=0;points=[];fontSize=20;" parent="ceRQ4z9V4SoCpZ6O9gZ1-2" vertex="1" connectable="0">
          <mxGeometry x="-0.1429" y="-1" relative="1" as="geometry">
            <mxPoint y="-21" as="offset" />
          </mxGeometry>
        </mxCell>
        <mxCell id="ceRQ4z9V4SoCpZ6O9gZ1-4" value="empleado" style="whiteSpace=wrap;html=1;align=center;fontSize=20;glass=0;rounded=0;shadow=0;sketch=0;fillColor=#d5e8d4;strokeColor=#82b366;fontStyle=1" parent="ceRQ4z9V4SoCpZ6O9gZ1-1" vertex="1">
          <mxGeometry x="72" y="252" width="100" height="40" as="geometry" />
        </mxCell>
        <mxCell id="ceRQ4z9V4SoCpZ6O9gZ1-6" value="departamento" style="whiteSpace=wrap;html=1;align=center;fontSize=20;fillColor=#d5e8d4;strokeColor=#82b366;fontStyle=1" parent="ceRQ4z9V4SoCpZ6O9gZ1-1" vertex="1">
          <mxGeometry x="612" y="252" width="145" height="40" as="geometry" />
        </mxCell>
        <mxCell id="ceRQ4z9V4SoCpZ6O9gZ1-7" style="edgeStyle=orthogonalEdgeStyle;rounded=0;orthogonalLoop=1;jettySize=auto;html=1;exitX=1;exitY=0.5;exitDx=0;exitDy=0;entryX=0;entryY=0.5;entryDx=0;entryDy=0;fontSize=20;" parent="ceRQ4z9V4SoCpZ6O9gZ1-1" source="ceRQ4z9V4SoCpZ6O9gZ1-9" target="ceRQ4z9V4SoCpZ6O9gZ1-6" edge="1">
          <mxGeometry relative="1" as="geometry" />
        </mxCell>
        <mxCell id="ceRQ4z9V4SoCpZ6O9gZ1-8" value="1/1" style="edgeLabel;html=1;align=center;verticalAlign=middle;resizable=0;points=[];fontSize=20;" parent="ceRQ4z9V4SoCpZ6O9gZ1-7" vertex="1" connectable="0">
          <mxGeometry x="-0.2678" y="-1" relative="1" as="geometry">
            <mxPoint x="17" y="-21" as="offset" />
          </mxGeometry>
        </mxCell>
        <mxCell id="ceRQ4z9V4SoCpZ6O9gZ1-9" value="asignar" style="shape=rhombus;perimeter=rhombusPerimeter;whiteSpace=wrap;html=1;align=center;fontSize=20;fillColor=#fff2cc;strokeColor=#d6b656;fontStyle=1" parent="ceRQ4z9V4SoCpZ6O9gZ1-1" vertex="1">
          <mxGeometry x="354" y="242" width="120" height="60" as="geometry" />
        </mxCell>
        <mxCell id="ceRQ4z9V4SoCpZ6O9gZ1-10" value="&lt;div style=&quot;font-size: 19px;&quot;&gt;&lt;font style=&quot;font-size: 19px;&quot;&gt;Una empresa está compuesta por varios departamentos de los que se desea almacenar&amp;nbsp;&lt;/font&gt;&lt;/div&gt;&lt;div style=&quot;font-size: 19px;&quot;&gt;&lt;font style=&quot;font-size: 19px;&quot;&gt;su nº,&amp;nbsp;&lt;span style=&quot;background-color: initial;&quot;&gt;nombre y localidad.&amp;nbsp;&lt;/span&gt;&lt;span style=&quot;background-color: initial;&quot;&gt;- Los empleados deben estar asignados a un departamento&amp;nbsp;&lt;/span&gt;&lt;span style=&quot;background-color: initial;&quot;&gt;y&amp;nbsp;&lt;/span&gt;&lt;/font&gt;&lt;/div&gt;&lt;div style=&quot;font-size: 19px;&quot;&gt;&lt;font style=&quot;font-size: 19px;&quot;&gt;&lt;span style=&quot;background-color: initial;&quot;&gt;se guardarán sus datos&amp;nbsp;&lt;/span&gt;&lt;span style=&quot;background-color: initial;&quot;&gt;nºempleado,&lt;/span&gt;&lt;span style=&quot;background-color: initial;&quot;&gt;&amp;nbsp;apellido, salario. Además, cada empleado tiene un jefe.&lt;/span&gt;&lt;/font&gt;&lt;/div&gt;&lt;div style=&quot;font-size: 19px;&quot;&gt;&lt;span style=&quot;background-color: initial;&quot;&gt;&lt;font style=&quot;font-size: 19px;&quot;&gt;(Nota: se ha supuesto que un departamento puede no tener empleados)&lt;/font&gt;&lt;/span&gt;&lt;br&gt;&lt;/div&gt;" style="text;html=1;align=center;verticalAlign=middle;resizable=0;points=[];autosize=1;strokeColor=none;fillColor=none;fontSize=20;" parent="ceRQ4z9V4SoCpZ6O9gZ1-1" vertex="1">
          <mxGeometry x="14" y="21" width="801" height="108" as="geometry" />
        </mxCell>
        <mxCell id="ceRQ4z9V4SoCpZ6O9gZ1-11" value="1/N" style="text;html=1;align=center;verticalAlign=middle;resizable=0;points=[];autosize=1;strokeColor=none;fillColor=none;fontSize=20;" parent="ceRQ4z9V4SoCpZ6O9gZ1-1" vertex="1">
          <mxGeometry x="388" y="206" width="54" height="36" as="geometry" />
        </mxCell>
        <mxCell id="Svti_c724xQN9t_r4_0s-2" value="jefe" style="whiteSpace=wrap;html=1;align=center;fontSize=20;fillColor=#d5e8d4;strokeColor=#82b366;fontStyle=1" parent="ceRQ4z9V4SoCpZ6O9gZ1-1" vertex="1">
          <mxGeometry x="392" y="477" width="100" height="40" as="geometry" />
        </mxCell>
        <mxCell id="Svti_c724xQN9t_r4_0s-4" value="nombre" style="ellipse;whiteSpace=wrap;html=1;align=center;fontSize=20;" parent="ceRQ4z9V4SoCpZ6O9gZ1-1" vertex="1">
          <mxGeometry x="-63" y="216" width="100" height="40" as="geometry" />
        </mxCell>
        <mxCell id="Svti_c724xQN9t_r4_0s-5" value="localidad" style="ellipse;whiteSpace=wrap;html=1;align=center;fontSize=20;" parent="ceRQ4z9V4SoCpZ6O9gZ1-1" vertex="1">
          <mxGeometry x="-63" y="270" width="100" height="40" as="geometry" />
        </mxCell>
        <mxCell id="Svti_c724xQN9t_r4_0s-12" value="apellido" style="ellipse;whiteSpace=wrap;html=1;align=center;fontSize=20;" parent="ceRQ4z9V4SoCpZ6O9gZ1-1" vertex="1">
          <mxGeometry x="693" y="324" width="100" height="40" as="geometry" />
        </mxCell>
        <mxCell id="Svti_c724xQN9t_r4_0s-14" value="salario" style="ellipse;whiteSpace=wrap;html=1;align=center;fontSize=20;" parent="ceRQ4z9V4SoCpZ6O9gZ1-1" vertex="1">
          <mxGeometry x="576" y="324" width="100" height="40" as="geometry" />
        </mxCell>
        <mxCell id="5hY5nUk3EdLcNcII4HAr-0" value="nº" style="ellipse;whiteSpace=wrap;html=1;align=center;fontStyle=4;fontSize=20;fillColor=#dae8fc;strokeColor=#6c8ebf;" parent="ceRQ4z9V4SoCpZ6O9gZ1-1" vertex="1">
          <mxGeometry x="-63" y="162" width="100" height="40" as="geometry" />
        </mxCell>
        <mxCell id="5hY5nUk3EdLcNcII4HAr-2" value="nº empleado" style="ellipse;whiteSpace=wrap;html=1;align=center;fontStyle=4;fontSize=20;fillColor=#dae8fc;strokeColor=#6c8ebf;" parent="ceRQ4z9V4SoCpZ6O9gZ1-1" vertex="1">
          <mxGeometry x="793" y="252" width="126" height="40" as="geometry" />
        </mxCell>
        <mxCell id="5hY5nUk3EdLcNcII4HAr-15" value="" style="endArrow=none;html=1;rounded=0;fontSize=20;entryX=0;entryY=0;entryDx=0;entryDy=0;exitX=1;exitY=0.5;exitDx=0;exitDy=0;" parent="ceRQ4z9V4SoCpZ6O9gZ1-1" source="5hY5nUk3EdLcNcII4HAr-0" target="ceRQ4z9V4SoCpZ6O9gZ1-4" edge="1">
          <mxGeometry relative="1" as="geometry">
            <mxPoint x="37" y="271.5" as="sourcePoint" />
            <mxPoint x="72" y="272" as="targetPoint" />
          </mxGeometry>
        </mxCell>
        <mxCell id="5hY5nUk3EdLcNcII4HAr-16" value="" style="endArrow=none;html=1;rounded=0;fontSize=20;entryX=0;entryY=1;entryDx=0;entryDy=0;exitX=1;exitY=0.5;exitDx=0;exitDy=0;" parent="ceRQ4z9V4SoCpZ6O9gZ1-1" source="Svti_c724xQN9t_r4_0s-5" target="ceRQ4z9V4SoCpZ6O9gZ1-4" edge="1">
          <mxGeometry relative="1" as="geometry">
            <mxPoint x="122" y="182" as="sourcePoint" />
            <mxPoint x="144" y="306" as="targetPoint" />
          </mxGeometry>
        </mxCell>
        <mxCell id="5hY5nUk3EdLcNcII4HAr-17" value="" style="endArrow=none;html=1;rounded=0;fontSize=20;exitX=1;exitY=0.5;exitDx=0;exitDy=0;entryX=0;entryY=0.25;entryDx=0;entryDy=0;" parent="ceRQ4z9V4SoCpZ6O9gZ1-1" source="Svti_c724xQN9t_r4_0s-4" target="ceRQ4z9V4SoCpZ6O9gZ1-4" edge="1">
          <mxGeometry relative="1" as="geometry">
            <mxPoint x="122" y="216" as="sourcePoint" />
            <mxPoint x="59" y="279" as="targetPoint" />
          </mxGeometry>
        </mxCell>
        <mxCell id="5hY5nUk3EdLcNcII4HAr-18" value="" style="endArrow=none;html=1;rounded=0;fontSize=20;exitX=0;exitY=0.5;exitDx=0;exitDy=0;entryX=1;entryY=0.5;entryDx=0;entryDy=0;" parent="ceRQ4z9V4SoCpZ6O9gZ1-1" source="5hY5nUk3EdLcNcII4HAr-2" target="ceRQ4z9V4SoCpZ6O9gZ1-6" edge="1">
          <mxGeometry relative="1" as="geometry">
            <mxPoint x="693" y="234" as="sourcePoint" />
            <mxPoint x="853" y="234" as="targetPoint" />
          </mxGeometry>
        </mxCell>
        <mxCell id="5hY5nUk3EdLcNcII4HAr-19" value="" style="endArrow=none;html=1;rounded=0;fontSize=20;exitX=0.5;exitY=1;exitDx=0;exitDy=0;entryX=0.5;entryY=0;entryDx=0;entryDy=0;" parent="ceRQ4z9V4SoCpZ6O9gZ1-1" source="ceRQ4z9V4SoCpZ6O9gZ1-6" target="Svti_c724xQN9t_r4_0s-12" edge="1">
          <mxGeometry relative="1" as="geometry">
            <mxPoint x="783" y="297" as="sourcePoint" />
            <mxPoint x="943" y="297" as="targetPoint" />
          </mxGeometry>
        </mxCell>
        <mxCell id="5hY5nUk3EdLcNcII4HAr-20" value="" style="endArrow=none;html=1;rounded=0;fontSize=20;exitX=0.5;exitY=1;exitDx=0;exitDy=0;entryX=0.5;entryY=0;entryDx=0;entryDy=0;" parent="ceRQ4z9V4SoCpZ6O9gZ1-1" source="ceRQ4z9V4SoCpZ6O9gZ1-6" target="Svti_c724xQN9t_r4_0s-14" edge="1">
          <mxGeometry relative="1" as="geometry">
            <mxPoint x="684" y="324" as="sourcePoint" />
            <mxPoint x="844" y="324" as="targetPoint" />
          </mxGeometry>
        </mxCell>
        <mxCell id="xyMA2tcLIjP07GyswKxN-0" value="jefe" style="shape=rhombus;perimeter=rhombusPerimeter;whiteSpace=wrap;html=1;align=center;fontSize=20;fillColor=#fff2cc;strokeColor=#d6b656;" parent="ceRQ4z9V4SoCpZ6O9gZ1-1" vertex="1">
          <mxGeometry x="62" y="342" width="120" height="60" as="geometry" />
        </mxCell>
      </root>
    </mxGraphModel>
  </diagram>
  <diagram name="EJE-7" id="eCQk8WWaCOQ9R6_1u9TO">
    <mxGraphModel dx="2249" dy="771" grid="1" gridSize="9" guides="1" tooltips="1" connect="1" arrows="1" fold="1" page="1" pageScale="1" pageWidth="827" pageHeight="1169" math="0" shadow="0">
      <root>
        <mxCell id="dQ05x5KbaUEkVMnu56LT-0" />
        <mxCell id="dQ05x5KbaUEkVMnu56LT-1" parent="dQ05x5KbaUEkVMnu56LT-0" />
        <mxCell id="dQ05x5KbaUEkVMnu56LT-2" style="edgeStyle=orthogonalEdgeStyle;rounded=0;orthogonalLoop=1;jettySize=auto;html=1;exitX=1;exitY=0.5;exitDx=0;exitDy=0;entryX=0;entryY=0.5;entryDx=0;entryDy=0;fontSize=20;" parent="dQ05x5KbaUEkVMnu56LT-1" source="dQ05x5KbaUEkVMnu56LT-4" target="dQ05x5KbaUEkVMnu56LT-8" edge="1">
          <mxGeometry relative="1" as="geometry" />
        </mxCell>
        <mxCell id="dQ05x5KbaUEkVMnu56LT-3" value="1/1" style="edgeLabel;html=1;align=center;verticalAlign=middle;resizable=0;points=[];fontSize=20;" parent="dQ05x5KbaUEkVMnu56LT-2" vertex="1" connectable="0">
          <mxGeometry x="-0.1429" y="-1" relative="1" as="geometry">
            <mxPoint y="-21" as="offset" />
          </mxGeometry>
        </mxCell>
        <mxCell id="dQ05x5KbaUEkVMnu56LT-4" value="equipos" style="whiteSpace=wrap;html=1;align=center;fontSize=20;glass=0;rounded=0;shadow=0;sketch=0;fillColor=#d5e8d4;strokeColor=#82b366;fontStyle=1" parent="dQ05x5KbaUEkVMnu56LT-1" vertex="1">
          <mxGeometry x="72" y="252" width="100" height="40" as="geometry" />
        </mxCell>
        <mxCell id="9XAwXT56aP_MNhkPx8oP-2" style="edgeStyle=orthogonalEdgeStyle;rounded=0;orthogonalLoop=1;jettySize=auto;html=1;exitX=1;exitY=1;exitDx=0;exitDy=0;entryX=0;entryY=0.5;entryDx=0;entryDy=0;fontSize=20;" parent="dQ05x5KbaUEkVMnu56LT-1" source="dQ05x5KbaUEkVMnu56LT-5" target="9XAwXT56aP_MNhkPx8oP-1" edge="1">
          <mxGeometry relative="1" as="geometry" />
        </mxCell>
        <mxCell id="9XAwXT56aP_MNhkPx8oP-3" style="edgeStyle=orthogonalEdgeStyle;rounded=0;orthogonalLoop=1;jettySize=auto;html=1;exitX=1;exitY=0;exitDx=0;exitDy=0;entryX=0;entryY=0.5;entryDx=0;entryDy=0;fontSize=20;" parent="dQ05x5KbaUEkVMnu56LT-1" source="dQ05x5KbaUEkVMnu56LT-5" target="dQ05x5KbaUEkVMnu56LT-21" edge="1">
          <mxGeometry relative="1" as="geometry" />
        </mxCell>
        <mxCell id="9XAwXT56aP_MNhkPx8oP-4" style="edgeStyle=orthogonalEdgeStyle;rounded=0;orthogonalLoop=1;jettySize=auto;html=1;exitX=1;exitY=0.5;exitDx=0;exitDy=0;entryX=0;entryY=0.5;entryDx=0;entryDy=0;fontSize=20;" parent="dQ05x5KbaUEkVMnu56LT-1" source="dQ05x5KbaUEkVMnu56LT-5" target="9XAwXT56aP_MNhkPx8oP-0" edge="1">
          <mxGeometry relative="1" as="geometry" />
        </mxCell>
        <mxCell id="dQ05x5KbaUEkVMnu56LT-5" value="partidos" style="whiteSpace=wrap;html=1;align=center;fontSize=20;fillColor=#d5e8d4;strokeColor=#82b366;fontStyle=1" parent="dQ05x5KbaUEkVMnu56LT-1" vertex="1">
          <mxGeometry x="612" y="252" width="145" height="40" as="geometry" />
        </mxCell>
        <mxCell id="dQ05x5KbaUEkVMnu56LT-6" style="edgeStyle=orthogonalEdgeStyle;rounded=0;orthogonalLoop=1;jettySize=auto;html=1;exitX=1;exitY=0.5;exitDx=0;exitDy=0;entryX=0;entryY=0.5;entryDx=0;entryDy=0;fontSize=20;" parent="dQ05x5KbaUEkVMnu56LT-1" source="dQ05x5KbaUEkVMnu56LT-8" target="dQ05x5KbaUEkVMnu56LT-5" edge="1">
          <mxGeometry relative="1" as="geometry" />
        </mxCell>
        <mxCell id="dQ05x5KbaUEkVMnu56LT-7" value="0/n" style="edgeLabel;html=1;align=center;verticalAlign=middle;resizable=0;points=[];fontSize=20;" parent="dQ05x5KbaUEkVMnu56LT-6" vertex="1" connectable="0">
          <mxGeometry x="-0.2678" y="-1" relative="1" as="geometry">
            <mxPoint x="17" y="-21" as="offset" />
          </mxGeometry>
        </mxCell>
        <mxCell id="dQ05x5KbaUEkVMnu56LT-8" value="" style="shape=rhombus;perimeter=rhombusPerimeter;whiteSpace=wrap;html=1;align=center;fontSize=20;fillColor=#fff2cc;strokeColor=#d6b656;fontStyle=1" parent="dQ05x5KbaUEkVMnu56LT-1" vertex="1">
          <mxGeometry x="354" y="242" width="120" height="60" as="geometry" />
        </mxCell>
        <mxCell id="dQ05x5KbaUEkVMnu56LT-9" value="&lt;div style=&quot;&quot;&gt;&lt;span style=&quot;font-size: 19px;&quot;&gt;Se desea construir una bd para mantener información sobre los equipos y partidos de la liga.&amp;nbsp;&lt;/span&gt;&lt;/div&gt;&lt;div style=&quot;&quot;&gt;&lt;span style=&quot;font-size: 19px;&quot;&gt;- Un equipo tiene un cierto nº de jugadores (Id_jugador, datos personales)&amp;nbsp;&lt;/span&gt;&lt;span style=&quot;font-size: 19px; background-color: initial;&quot;&gt;y no todos participan en cada partido.&amp;nbsp;&lt;/span&gt;&lt;/div&gt;&lt;div style=&quot;&quot;&gt;&lt;span style=&quot;font-size: 19px; background-color: initial;&quot;&gt;Queremos registrar además por cada partido, qué jugadores juegan,&amp;nbsp;&lt;/span&gt;&lt;span style=&quot;background-color: initial; font-size: 19px;&quot;&gt;la fecha y la hora del partido,&amp;nbsp;&lt;/span&gt;&lt;/div&gt;&lt;div style=&quot;&quot;&gt;&lt;span style=&quot;background-color: initial; font-size: 19px;&quot;&gt;resultados de los encuentros y las posiciones donde juegan.&lt;/span&gt;&lt;/div&gt;" style="text;html=1;align=center;verticalAlign=middle;resizable=0;points=[];autosize=1;strokeColor=none;fillColor=none;fontSize=20;" parent="dQ05x5KbaUEkVMnu56LT-1" vertex="1">
          <mxGeometry x="-70" y="21" width="972" height="108" as="geometry" />
        </mxCell>
        <mxCell id="dQ05x5KbaUEkVMnu56LT-10" value="¿?" style="text;html=1;align=center;verticalAlign=middle;resizable=0;points=[];autosize=1;strokeColor=none;fillColor=none;fontSize=20;" parent="dQ05x5KbaUEkVMnu56LT-1" vertex="1">
          <mxGeometry x="393" y="206" width="45" height="36" as="geometry" />
        </mxCell>
        <mxCell id="dQ05x5KbaUEkVMnu56LT-15" value="nº jugadores" style="ellipse;whiteSpace=wrap;html=1;align=center;fontSize=20;" parent="dQ05x5KbaUEkVMnu56LT-1" vertex="1">
          <mxGeometry x="-90" y="252" width="127" height="40" as="geometry" />
        </mxCell>
        <mxCell id="dQ05x5KbaUEkVMnu56LT-19" value="datos personales" style="ellipse;whiteSpace=wrap;html=1;align=center;fontSize=20;" parent="dQ05x5KbaUEkVMnu56LT-1" vertex="1">
          <mxGeometry x="24.869999999999997" y="351" width="194.25" height="45" as="geometry" />
        </mxCell>
        <mxCell id="dQ05x5KbaUEkVMnu56LT-21" value="fecha" style="ellipse;whiteSpace=wrap;html=1;align=center;fontSize=20;" parent="dQ05x5KbaUEkVMnu56LT-1" vertex="1">
          <mxGeometry x="815" y="176" width="100" height="40" as="geometry" />
        </mxCell>
        <mxCell id="dQ05x5KbaUEkVMnu56LT-22" style="edgeStyle=orthogonalEdgeStyle;rounded=0;orthogonalLoop=1;jettySize=auto;html=1;exitX=0.5;exitY=1;exitDx=0;exitDy=0;entryX=0.5;entryY=0;entryDx=0;entryDy=0;fontSize=20;" parent="dQ05x5KbaUEkVMnu56LT-1" source="dQ05x5KbaUEkVMnu56LT-23" target="dQ05x5KbaUEkVMnu56LT-5" edge="1">
          <mxGeometry relative="1" as="geometry" />
        </mxCell>
        <mxCell id="dQ05x5KbaUEkVMnu56LT-23" value="jugadores" style="ellipse;whiteSpace=wrap;html=1;align=center;fontSize=20;" parent="dQ05x5KbaUEkVMnu56LT-1" vertex="1">
          <mxGeometry x="621" y="162" width="117" height="54" as="geometry" />
        </mxCell>
        <mxCell id="dQ05x5KbaUEkVMnu56LT-24" style="edgeStyle=orthogonalEdgeStyle;rounded=0;orthogonalLoop=1;jettySize=auto;html=1;exitX=0.5;exitY=0;exitDx=0;exitDy=0;entryX=0.5;entryY=1;entryDx=0;entryDy=0;fontSize=20;" parent="dQ05x5KbaUEkVMnu56LT-1" source="dQ05x5KbaUEkVMnu56LT-25" target="dQ05x5KbaUEkVMnu56LT-5" edge="1">
          <mxGeometry relative="1" as="geometry" />
        </mxCell>
        <mxCell id="dQ05x5KbaUEkVMnu56LT-25" value="resultado" style="ellipse;whiteSpace=wrap;html=1;align=center;fontSize=20;" parent="dQ05x5KbaUEkVMnu56LT-1" vertex="1">
          <mxGeometry x="635" y="333" width="100" height="40" as="geometry" />
        </mxCell>
        <mxCell id="9XAwXT56aP_MNhkPx8oP-0" value="hora" style="ellipse;whiteSpace=wrap;html=1;align=center;fontSize=20;" parent="dQ05x5KbaUEkVMnu56LT-1" vertex="1">
          <mxGeometry x="815" y="252" width="100" height="40" as="geometry" />
        </mxCell>
        <mxCell id="9XAwXT56aP_MNhkPx8oP-1" value="posiciones" style="ellipse;whiteSpace=wrap;html=1;align=center;fontSize=20;" parent="dQ05x5KbaUEkVMnu56LT-1" vertex="1">
          <mxGeometry x="815" y="324" width="100" height="40" as="geometry" />
        </mxCell>
        <mxCell id="qAIKKBQoK4L0yolpXfCF-0" value="id jugador" style="ellipse;whiteSpace=wrap;html=1;align=center;fontStyle=4;fontSize=20;fillColor=#dae8fc;strokeColor=#6c8ebf;" vertex="1" parent="dQ05x5KbaUEkVMnu56LT-1">
          <mxGeometry x="71.99000000000001" y="176" width="100" height="40" as="geometry" />
        </mxCell>
        <mxCell id="qAIKKBQoK4L0yolpXfCF-2" value="" style="endArrow=none;html=1;rounded=0;fontSize=20;exitX=0.5;exitY=1;exitDx=0;exitDy=0;entryX=0.5;entryY=0;entryDx=0;entryDy=0;" edge="1" parent="dQ05x5KbaUEkVMnu56LT-1" source="qAIKKBQoK4L0yolpXfCF-0" target="dQ05x5KbaUEkVMnu56LT-4">
          <mxGeometry relative="1" as="geometry">
            <mxPoint x="126" y="234" as="sourcePoint" />
            <mxPoint x="286" y="234" as="targetPoint" />
          </mxGeometry>
        </mxCell>
        <mxCell id="9OE_mrU0FrqTGjvZrip3-0" value="" style="endArrow=none;html=1;rounded=0;fontSize=20;exitX=0.5;exitY=1;exitDx=0;exitDy=0;entryX=0.5;entryY=0;entryDx=0;entryDy=0;" edge="1" parent="dQ05x5KbaUEkVMnu56LT-1" source="dQ05x5KbaUEkVMnu56LT-4" target="dQ05x5KbaUEkVMnu56LT-19">
          <mxGeometry relative="1" as="geometry">
            <mxPoint x="126" y="324" as="sourcePoint" />
            <mxPoint x="286" y="324" as="targetPoint" />
          </mxGeometry>
        </mxCell>
        <mxCell id="9OE_mrU0FrqTGjvZrip3-1" value="" style="endArrow=none;html=1;rounded=0;fontSize=20;entryX=0;entryY=0.5;entryDx=0;entryDy=0;exitX=1;exitY=0.5;exitDx=0;exitDy=0;" edge="1" parent="dQ05x5KbaUEkVMnu56LT-1" source="dQ05x5KbaUEkVMnu56LT-15" target="dQ05x5KbaUEkVMnu56LT-4">
          <mxGeometry relative="1" as="geometry">
            <mxPoint x="-81" y="324" as="sourcePoint" />
            <mxPoint x="79" y="324" as="targetPoint" />
          </mxGeometry>
        </mxCell>
      </root>
    </mxGraphModel>
  </diagram>
  <diagram name="EJE-8" id="xvFp81wpOPmgEZawM7QU">
    <mxGraphModel dx="2249" dy="771" grid="1" gridSize="9" guides="1" tooltips="1" connect="1" arrows="1" fold="1" page="1" pageScale="1" pageWidth="827" pageHeight="1169" math="0" shadow="0">
      <root>
        <mxCell id="FOosRSez182wkQKPUyBT-0" />
        <mxCell id="FOosRSez182wkQKPUyBT-1" parent="FOosRSez182wkQKPUyBT-0" />
        <mxCell id="FOosRSez182wkQKPUyBT-2" style="edgeStyle=orthogonalEdgeStyle;rounded=0;orthogonalLoop=1;jettySize=auto;html=1;exitX=1;exitY=0.5;exitDx=0;exitDy=0;entryX=0;entryY=0.5;entryDx=0;entryDy=0;fontSize=20;" parent="FOosRSez182wkQKPUyBT-1" source="FOosRSez182wkQKPUyBT-4" target="FOosRSez182wkQKPUyBT-11" edge="1">
          <mxGeometry relative="1" as="geometry" />
        </mxCell>
        <mxCell id="FOosRSez182wkQKPUyBT-3" value="1/n" style="edgeLabel;html=1;align=center;verticalAlign=middle;resizable=0;points=[];fontSize=20;" parent="FOosRSez182wkQKPUyBT-2" vertex="1" connectable="0">
          <mxGeometry x="-0.1429" y="-1" relative="1" as="geometry">
            <mxPoint y="-21" as="offset" />
          </mxGeometry>
        </mxCell>
        <mxCell id="FOosRSez182wkQKPUyBT-4" value="universidad" style="whiteSpace=wrap;html=1;align=center;fontSize=20;glass=0;rounded=0;shadow=0;sketch=0;fillColor=#d5e8d4;strokeColor=#82b366;fontStyle=1" parent="FOosRSez182wkQKPUyBT-1" vertex="1">
          <mxGeometry x="63" y="268" width="118" height="40" as="geometry" />
        </mxCell>
        <mxCell id="duW09SVJwu85f6rAntdO-13" style="edgeStyle=orthogonalEdgeStyle;rounded=0;orthogonalLoop=1;jettySize=auto;html=1;exitX=1;exitY=0.5;exitDx=0;exitDy=0;entryX=0;entryY=0.5;entryDx=0;entryDy=0;fontSize=20;" parent="FOosRSez182wkQKPUyBT-1" source="FOosRSez182wkQKPUyBT-8" target="duW09SVJwu85f6rAntdO-7" edge="1">
          <mxGeometry relative="1" as="geometry" />
        </mxCell>
        <mxCell id="FOosRSez182wkQKPUyBT-8" value="carreras" style="whiteSpace=wrap;html=1;align=center;fontSize=20;fillColor=#d5e8d4;strokeColor=#82b366;fontStyle=1" parent="FOosRSez182wkQKPUyBT-1" vertex="1">
          <mxGeometry x="576" y="268" width="145" height="40" as="geometry" />
        </mxCell>
        <mxCell id="duW09SVJwu85f6rAntdO-5" style="edgeStyle=orthogonalEdgeStyle;rounded=0;orthogonalLoop=1;jettySize=auto;html=1;exitX=1;exitY=0.5;exitDx=0;exitDy=0;entryX=0;entryY=0.5;entryDx=0;entryDy=0;fontSize=20;" parent="FOosRSez182wkQKPUyBT-1" source="FOosRSez182wkQKPUyBT-11" target="FOosRSez182wkQKPUyBT-8" edge="1">
          <mxGeometry relative="1" as="geometry" />
        </mxCell>
        <mxCell id="duW09SVJwu85f6rAntdO-6" value="1/n" style="edgeLabel;html=1;align=center;verticalAlign=middle;resizable=0;points=[];fontSize=20;" parent="duW09SVJwu85f6rAntdO-5" vertex="1" connectable="0">
          <mxGeometry x="-0.2157" relative="1" as="geometry">
            <mxPoint x="8" y="-20" as="offset" />
          </mxGeometry>
        </mxCell>
        <mxCell id="FOosRSez182wkQKPUyBT-11" value="información" style="shape=rhombus;perimeter=rhombusPerimeter;whiteSpace=wrap;html=1;align=center;fontSize=20;fillColor=#fff2cc;strokeColor=#d6b656;fontStyle=1" parent="FOosRSez182wkQKPUyBT-1" vertex="1">
          <mxGeometry x="324" y="252" width="150" height="72" as="geometry" />
        </mxCell>
        <mxCell id="FOosRSez182wkQKPUyBT-12" value="&lt;div style=&quot;&quot;&gt;&lt;span style=&quot;font-size: 19px;&quot;&gt;Se desea diseñar una BD para una Universidad que contenga información sobre carreras y asignaturas que se pueden estudiar.&amp;nbsp;&lt;/span&gt;&lt;/div&gt;&lt;span style=&quot;font-size: 19px;&quot;&gt;Además,&lt;/span&gt;&lt;span style=&quot;font-size: 19px; background-color: initial;&quot;&gt;&amp;nbsp;se incluirá la información de los alumnos matriculados en las correspondientes asignaturas y&amp;nbsp;&lt;/span&gt;&lt;span style=&quot;font-size: 19px;&quot;&gt;&lt;br&gt;&lt;/span&gt;&lt;div style=&quot;&quot;&gt;&lt;span style=&quot;font-size: 19px;&quot;&gt;las calificaciones que obtienen en las asignaturas en las que están matriculados.&amp;nbsp;&lt;/span&gt;&lt;/div&gt;&lt;div style=&quot;&quot;&gt;&lt;span style=&quot;font-size: 19px;&quot;&gt;Nota: suponer que una asignatura solo puede pertenecer a una carrera.&lt;/span&gt;&lt;br&gt;&lt;/div&gt;" style="text;html=1;align=center;verticalAlign=middle;resizable=0;points=[];autosize=1;strokeColor=none;fillColor=none;fontSize=20;" parent="FOosRSez182wkQKPUyBT-1" vertex="1">
          <mxGeometry x="-137" y="22" width="1107" height="108" as="geometry" />
        </mxCell>
        <mxCell id="FOosRSez182wkQKPUyBT-13" value="n/m" style="text;html=1;align=center;verticalAlign=middle;resizable=0;points=[];autosize=1;strokeColor=none;fillColor=none;fontSize=20;" parent="FOosRSez182wkQKPUyBT-1" vertex="1">
          <mxGeometry x="372.5" y="214" width="54" height="36" as="geometry" />
        </mxCell>
        <mxCell id="duW09SVJwu85f6rAntdO-11" style="edgeStyle=orthogonalEdgeStyle;rounded=0;orthogonalLoop=1;jettySize=auto;html=1;exitX=1;exitY=1;exitDx=0;exitDy=0;entryX=0;entryY=0.5;entryDx=0;entryDy=0;fontSize=20;" parent="FOosRSez182wkQKPUyBT-1" source="duW09SVJwu85f6rAntdO-7" target="duW09SVJwu85f6rAntdO-9" edge="1">
          <mxGeometry relative="1" as="geometry" />
        </mxCell>
        <mxCell id="duW09SVJwu85f6rAntdO-12" style="edgeStyle=orthogonalEdgeStyle;rounded=0;orthogonalLoop=1;jettySize=auto;html=1;exitX=1;exitY=0;exitDx=0;exitDy=0;entryX=0;entryY=0.5;entryDx=0;entryDy=0;fontSize=20;" parent="FOosRSez182wkQKPUyBT-1" source="duW09SVJwu85f6rAntdO-7" target="duW09SVJwu85f6rAntdO-8" edge="1">
          <mxGeometry relative="1" as="geometry" />
        </mxCell>
        <mxCell id="duW09SVJwu85f6rAntdO-7" value="asignatura" style="ellipse;whiteSpace=wrap;html=1;align=center;fontSize=20;" parent="FOosRSez182wkQKPUyBT-1" vertex="1">
          <mxGeometry x="756" y="268" width="100" height="40" as="geometry" />
        </mxCell>
        <mxCell id="duW09SVJwu85f6rAntdO-8" value="id_alumno" style="ellipse;whiteSpace=wrap;html=1;align=center;fontSize=20;" parent="FOosRSez182wkQKPUyBT-1" vertex="1">
          <mxGeometry x="900" y="212" width="108" height="40" as="geometry" />
        </mxCell>
        <mxCell id="duW09SVJwu85f6rAntdO-9" value="calificaciones" style="ellipse;whiteSpace=wrap;html=1;align=center;fontSize=20;" parent="FOosRSez182wkQKPUyBT-1" vertex="1">
          <mxGeometry x="900" y="324" width="135" height="40" as="geometry" />
        </mxCell>
      </root>
    </mxGraphModel>
  </diagram>
</mxfile>
